<svg width="32" height="32" viewBox="0 0 32 32" fill="none" xmlns="http://www.w3.org/2000/svg">
<g clip-path="url(#clip0_16036_1630)">
<path d="M16.0011 17.8868C20.6627 17.8868 24.4417 14.3985 24.4417 10.0955C24.4417 5.79249 20.6627 2.3042 16.0011 2.3042C11.3395 2.3042 7.56055 5.79249 7.56055 10.0955C7.56055 14.3985 11.3395 17.8868 16.0011 17.8868Z" fill="#A4C639" stroke="white" stroke-width="1.33565"/>
<path d="M22.4011 8.14764H9.60113C8.47415 8.14764 7.56055 9.06124 7.56055 10.1882V22.9882C7.56055 24.1152 8.47415 25.0288 9.60113 25.0288H22.4011C23.5281 25.0288 24.4417 24.1152 24.4417 22.9882V10.1882C24.4417 9.06124 23.5281 8.14764 22.4011 8.14764Z" fill="#A4C639" stroke="white" stroke-width="1.33565"/>
<path d="M10.2367 1.0572C10.0753 0.765978 10.1805 0.399031 10.4717 0.237604C10.7629 0.0761757 11.1299 0.181396 11.2913 0.47262L14.574 6.39468C14.7354 6.68591 14.6302 7.05285 14.339 7.21428C14.0477 7.37571 13.6808 7.27049 13.5194 6.97926L10.2367 1.0572Z" fill="#A4C639" stroke="white" stroke-width="0.667826"/>
<path d="M24.8144 12.3214C24.8144 11.092 25.8111 10.0953 27.0405 10.0953C28.2699 10.0953 29.2666 11.092 29.2666 12.3214V20.2055C29.2666 21.4349 28.2699 22.4316 27.0405 22.4316C25.8111 22.4316 24.8144 21.4349 24.8144 20.2055V12.3214Z" fill="#A4C639" stroke="white" stroke-width="0.667826"/>
<path d="M16.9309 21.3185C16.9309 20.0891 17.9275 19.0924 19.157 19.0924C20.3864 19.0924 21.3831 20.0891 21.3831 21.3185V29.2026C21.3831 30.432 20.3864 31.4286 19.157 31.4286C17.9275 31.4286 16.9309 30.432 16.9309 29.2026V21.3185Z" fill="#A4C639" stroke="white" stroke-width="0.667826"/>
<path d="M21.7674 1.0572C21.9289 0.765978 21.8237 0.399031 21.5324 0.237604C21.2412 0.0761757 20.8743 0.181396 20.7128 0.47262L17.4302 6.39468C17.2688 6.68591 17.374 7.05285 17.6652 7.21428C17.9564 7.37571 18.3234 7.27049 18.4848 6.97926L21.7674 1.0572Z" fill="#A4C639" stroke="white" stroke-width="0.667826"/>
<path d="M7.19046 12.3214C7.19046 11.092 6.1938 10.0953 4.96437 10.0953C3.73493 10.0953 2.73828 11.092 2.73828 12.3214V20.2055C2.73828 21.4349 3.73493 22.4316 4.96437 22.4316C6.1938 22.4316 7.19046 21.4349 7.19046 20.2055V12.3214Z" fill="#A4C639" stroke="white" stroke-width="0.667826"/>
<path d="M15.0745 21.3185C15.0745 20.0891 14.0778 19.0924 12.8484 19.0924C11.619 19.0924 10.6223 20.0891 10.6223 21.3185V29.2026C10.6223 30.432 11.619 31.4286 12.8484 31.4286C14.0778 31.4286 15.0745 30.432 15.0745 29.2026V21.3185Z" fill="#A4C639" stroke="white" stroke-width="0.667826"/>
<path d="M16.0011 17.8868C20.6627 17.8868 24.4417 14.3985 24.4417 10.0955C24.4417 5.79249 20.6627 2.3042 16.0011 2.3042C11.3395 2.3042 7.56055 5.79249 7.56055 10.0955C7.56055 14.3985 11.3395 17.8868 16.0011 17.8868Z" fill="#A4C639"/>
<path d="M22.4011 8.14764H9.60113C8.47415 8.14764 7.56055 9.06124 7.56055 10.1882V22.9882C7.56055 24.1152 8.47415 25.0288 9.60113 25.0288H22.4011C23.5281 25.0288 24.4417 24.1152 24.4417 22.9882V10.1882C24.4417 9.06124 23.5281 8.14764 22.4011 8.14764Z" fill="#A4C639"/>
<path d="M7.1897 10.4204H24.8129H7.1897Z" fill="white"/>
<path d="M7.1897 10.4204H24.8129" stroke="white" stroke-width="0.667826"/>
<path d="M12.1064 6.6639C12.3113 6.6639 12.4774 6.4978 12.4774 6.29289C12.4774 6.08798 12.3113 5.92188 12.1064 5.92188C11.9015 5.92188 11.7354 6.08798 11.7354 6.29289C11.7354 6.4978 11.9015 6.6639 12.1064 6.6639Z" fill="white" stroke="white" stroke-width="0.667826"/>
<path d="M19.8966 6.66397C20.1016 6.66397 20.2677 6.49786 20.2677 6.29295C20.2677 6.08804 20.1016 5.92194 19.8966 5.92194C19.6917 5.92194 19.5256 6.08804 19.5256 6.29295C19.5256 6.49786 19.6917 6.66397 19.8966 6.66397Z" fill="white" stroke="white" stroke-width="0.667826"/>
</g>
<defs>
<clipPath id="clip0_16036_1630">
<rect width="32" height="32" fill="white"/>
</clipPath>
</defs>
</svg>
