<svg width="32" height="32" viewBox="0 0 32 32" fill="none" xmlns="http://www.w3.org/2000/svg">
<path d="M16.0011 2.23987L2.59473 7.02067L4.63953 24.7471L16.0011 31.0399L27.3627 24.7471L29.4075 7.02067L16.0011 2.23987Z" fill="#DD0031"/>
<path d="M16.001 2.23987V5.43667V5.42227V20.0095V31.0399L27.3626 24.7471L29.4074 7.02067L16.001 2.23987Z" fill="#C3002F"/>
<path d="M24.2422 24.1422H21.2764L19.6104 19.983L19.5918 19.9381H12.3809L12.3633 19.983L10.6963 24.1422H7.73047L16 5.59827L24.2422 24.1422ZM15.9346 11.5006L13.4863 17.3903L13.4453 17.4899H18.5566L18.5156 17.3903L16.0674 11.5006L16.001 11.3405L15.9346 11.5006Z" fill="white" stroke="white" stroke-width="0.144"/>
</svg>
