<svg width="32" height="32" viewBox="0 0 32 32" fill="none" xmlns="http://www.w3.org/2000/svg">
<g clip-path="url(#clip0_16036_1677)">
<path d="M18.8228 -0.106687L28.7949 -0.117676L12.0645 16.6043L7.70419 20.9401L2.74316 15.973L18.8228 -0.106687ZM18.73 14.824C18.8595 14.6531 19.0976 14.7373 19.2783 14.7153L28.7864 14.7178L20.1208 23.3748L15.1341 18.4187L18.73 14.824Z" fill="#44D1FD"/>
<path d="M10.1621 23.3835L15.1329 18.4188L20.1196 23.375L20.1403 23.3969L15.1341 28.3567L10.1621 23.3835Z" fill="#1FBCFD"/>
<path d="M15.1357 28.3568L20.1419 23.397L28.7905 32.054C25.5328 32.0614 22.2763 32.0516 19.0198 32.0589C18.8342 32.1004 18.7194 31.9307 18.601 31.8257L15.1357 28.3568Z" fill="#08589C"/>
</g>
<defs>
<clipPath id="clip0_16036_1677">
<rect width="32" height="32" fill="white"/>
</clipPath>
</defs>
</svg>
