<svg width="32" height="32" viewBox="0 0 32 32" fill="none" xmlns="http://www.w3.org/2000/svg">
<path d="M6.05412 27.1041L4 2L28.5316 2.05045L26.3595 27.1041L16.3584 30L6.05412 27.1041Z" fill="#E34F26"/>
<path d="M16.3584 27.5756V4.39087L26.4606 4.4245L24.6592 25.1677L16.3584 27.5756Z" fill="#EF652A"/>
<path d="M23.8604 7.2168L23.5928 10.084H11.7031L11.7139 10.1924L12.0332 13.4082L12.042 13.4971H23.2871L22.4443 22.8506L16.1562 24.5928L9.91699 22.8506L9.51172 18.1445H12.3936L12.5723 20.4443L12.5771 20.5117L12.6436 20.5312L16.1289 21.541L16.1553 21.5488L16.1816 21.542L19.6172 20.6162L19.6826 20.5986L19.6895 20.5312L20.1104 16.5234L20.1211 16.4141H9.37695L8.53613 7.2168H23.8604Z" fill="white" stroke="white" stroke-width="0.197835"/>
</svg>
