<svg width="32" height="32" viewBox="0 0 32 32" fill="none" xmlns="http://www.w3.org/2000/svg">
<path d="M16.0992 8.90771C14.6568 8.90771 13.2469 9.33541 12.0477 10.1367C10.8484 10.938 9.91371 12.077 9.36175 13.4095C8.8098 14.742 8.66538 16.2083 8.94677 17.6229C9.22815 19.0375 9.9227 20.3369 10.9426 21.3568C11.9624 22.3767 13.2619 23.0712 14.6765 23.3526C16.0911 23.634 17.5574 23.4896 18.8899 22.9376C20.2224 22.3857 21.3614 21.451 22.1627 20.2517C22.964 19.0525 23.3917 17.6426 23.3917 16.2002C23.3894 14.2668 22.6203 12.4133 21.2532 11.0462C19.8861 9.67907 18.0325 8.91002 16.0992 8.90771Z" fill="#478AFF"/>
<path d="M26.57 9.55397C28.4046 9.55397 29.8919 8.0667 29.8919 6.23206C29.8919 4.39742 28.4046 2.91016 26.57 2.91016C24.7353 2.91016 23.248 4.39742 23.248 6.23206C23.248 8.0667 24.7353 9.55397 26.57 9.55397Z" fill="#478AFF"/>
<path d="M30.6608 9.57159L30.5215 9.26683L30.3038 9.51935C29.7592 10.1373 29.0705 10.6114 28.2989 10.8995L28.0812 10.9778L28.1683 11.1955C29.3414 14.0168 29.4899 17.1598 28.588 20.0792C27.6861 22.9985 25.7906 25.51 23.2305 27.178C20.6704 28.8459 17.6071 29.5649 14.5723 29.2104C11.5374 28.8558 8.72239 27.4501 6.61566 25.237C4.50893 23.0239 3.2434 20.1431 3.03865 17.0945C2.8339 14.0458 3.70285 11.0217 5.49473 8.54677C7.28662 6.07184 9.88836 4.30228 12.8486 3.5451C15.8088 2.78793 18.9406 3.09093 21.7008 4.40152L21.9054 4.49948L21.9947 4.28179C22.32 3.52514 22.8269 2.86042 23.4706 2.34656L23.7318 2.12887L23.4336 1.97431C21.1679 0.796756 18.6509 0.185059 16.0975 0.191456C12.6405 0.191952 9.27651 1.31199 6.50913 3.38395C3.74175 5.4559 1.71978 8.36834 0.745831 11.6854C-0.22812 15.0024 -0.101672 18.5457 1.10625 21.7849C2.31417 25.0241 4.5386 27.785 7.44664 29.6544C10.3547 31.5238 13.7899 32.4012 17.2382 32.1553C20.6865 31.9093 23.9625 30.5533 26.5758 28.2901C29.1891 26.0269 30.9992 22.9782 31.7352 19.6004C32.4712 16.2226 32.0935 12.6973 30.6586 9.552L30.6608 9.57159Z" fill="#478AFF"/>
</svg>
