<svg width="32" height="32" viewBox="0 0 32 32" fill="none" xmlns="http://www.w3.org/2000/svg">
<g clip-path="url(#clip0_16036_2592)">
<path d="M15.984 18.8522C17.5592 18.8522 18.8362 17.5752 18.8362 16C18.8362 14.4248 17.5592 13.1478 15.984 13.1478C14.4088 13.1478 13.1318 14.4248 13.1318 16C13.1318 17.5752 14.4088 18.8522 15.984 18.8522Z" fill="#61DAFB"/>
<path d="M15.9845 21.8436C24.4369 21.8436 31.2889 19.2274 31.2889 16.0001C31.2889 12.7728 24.4369 10.1566 15.9845 10.1566C7.53217 10.1566 0.680176 12.7728 0.680176 16.0001C0.680176 19.2274 7.53217 21.8436 15.9845 21.8436Z" stroke="#61DAFB" stroke-width="1.3913"/>
<path d="M10.9248 18.9217C15.151 26.2417 20.8427 30.8676 23.6375 29.2539C26.4324 27.6403 25.2722 20.3982 21.046 13.0782C16.8198 5.75828 11.1281 1.13239 8.3332 2.74602C5.53831 4.35965 6.69859 11.6018 10.9248 18.9217Z" stroke="#61DAFB" stroke-width="1.3913"/>
<path d="M10.9244 13.0785C6.6982 20.3985 5.53791 27.6406 8.33281 29.2542C11.1277 30.8678 16.8194 26.2419 21.0456 18.922C25.2718 11.602 26.432 4.35992 23.6372 2.74629C20.8423 1.13266 15.1506 5.75855 10.9244 13.0785Z" stroke="#61DAFB" stroke-width="1.3913"/>
</g>
<defs>
<clipPath id="clip0_16036_2592">
<rect width="32" height="32" fill="white"/>
</clipPath>
</defs>
</svg>
