<svg width="32" height="32" viewBox="0 0 32 32" fill="none" xmlns="http://www.w3.org/2000/svg">
<path d="M31.1987 9.22018C31.1969 8.91444 31.1935 8.60886 31.185 8.30277C31.1672 7.63694 31.1279 6.96507 31.0095 6.30635C30.8894 5.6374 30.6931 5.01538 30.3838 4.4077C30.0801 3.81092 29.6831 3.26481 29.2095 2.79124C28.736 2.31766 28.1899 1.92071 27.5929 1.61687C26.9857 1.30786 26.3636 1.11161 25.6953 0.991527C25.0362 0.872826 24.3643 0.83372 23.698 0.815702C23.392 0.80741 23.0864 0.803929 22.7806 0.802035C22.4175 0.799988 22.0543 0.799988 21.6914 0.799988H13.6441H10.3102C9.94697 0.799988 9.58412 0.799988 9.2212 0.802086C8.91526 0.80398 8.60927 0.807461 8.30379 0.815753C8.13723 0.820258 7.97031 0.826093 7.80329 0.834129C7.30228 0.858289 6.8005 0.902565 6.30645 0.991578C5.80518 1.08167 5.32987 1.21455 4.86745 1.40573C4.71333 1.4694 4.56059 1.53963 4.40877 1.61687C3.96099 1.84475 3.54178 2.125 3.16049 2.45064C3.03339 2.55921 2.9105 2.67279 2.79215 2.79118C2.31847 3.26476 1.92147 3.81087 1.61779 4.40765C1.30842 5.01533 1.11237 5.63735 0.992186 6.3063C0.873946 6.96501 0.834635 7.63689 0.81672 8.30272C0.808325 8.60881 0.804793 8.91439 0.802797 9.22013C0.800494 9.58324 0.800801 9.94641 0.800801 10.3094V15.2652V21.6904C0.800801 22.0538 0.800442 22.4166 0.802797 22.7799C0.804793 23.0857 0.808325 23.3912 0.81672 23.6968C0.834635 24.363 0.873895 25.035 0.992186 25.6935C1.11237 26.3622 1.30842 26.9848 1.61779 27.5923C1.92147 28.1892 2.31847 28.7352 2.79215 29.2086C3.26547 29.6823 3.81173 30.0792 4.40882 30.3833C5.01604 30.6924 5.63811 30.8883 6.3066 31.0084C6.96527 31.127 7.63765 31.1664 8.30384 31.1842C8.60932 31.1923 8.91531 31.196 9.22126 31.1977C9.58417 31.2003 9.94703 31.2 10.3103 31.2H21.6914C22.0543 31.2 22.4175 31.2003 22.7805 31.1977C23.0863 31.196 23.392 31.1923 23.6979 31.1842C24.3643 31.1664 25.0361 31.1269 25.6952 31.0084C26.3635 30.8883 26.9857 30.6923 27.5928 30.3833C28.1899 30.0793 28.736 29.6823 29.2095 29.2086C29.683 28.7351 30.0801 28.1892 30.3837 27.5923C30.6931 26.9848 30.8894 26.3623 31.0095 25.6935C31.1278 25.035 31.1672 24.363 31.185 23.6968C31.1934 23.3912 31.1968 23.0857 31.1986 22.7799C31.201 22.4166 31.2008 22.0538 31.2008 21.6904V10.3094C31.2008 9.94641 31.201 9.58324 31.1987 9.22018Z" fill="#F05138"/>
<path d="M25.3711 20.303V20.304L25.2773 20.1976L25.3174 20.0609C25.3522 19.9422 25.3851 19.8345 25.4131 19.723L25.5166 19.2591C26.3882 14.7927 23.886 9.64942 19.5244 6.52374C21.3363 9.45705 22.0757 12.8367 21.25 15.8548C21.1668 16.159 21.0675 16.4499 20.958 16.7308L20.8418 17.0276L20.5762 16.8528C20.4679 16.7817 20.3281 16.6987 20.1348 16.5921L20.123 16.5862V16.5853H20.1221L20.1074 16.5755C20.0971 16.569 20.0816 16.5598 20.0615 16.5472C20.0212 16.5217 19.9614 16.483 19.8838 16.4329C19.7286 16.3328 19.5009 16.184 19.2109 15.9876C18.6304 15.5945 17.798 15.0116 16.7891 14.2503C15.2407 13.082 13.2766 11.4913 11.1641 9.52374C11.2712 9.66835 11.3811 9.81976 11.4971 9.97394C12.7147 11.5925 14.3963 13.6991 16.1816 15.5853L15.8682 15.9876C14.4577 15.1961 11.0022 12.7211 8.1543 10.3421C10.6354 13.4848 13.8462 17.3204 17.6787 20.2679L17.9756 20.4964L17.6562 20.6917C14.8329 22.4195 10.8747 22.538 6.96582 20.7073C6.42076 20.4519 5.895 20.1651 5.38867 19.8538C6.96584 21.9376 9.13409 23.7074 11.6924 24.8069C15.2742 26.3462 18.8116 26.2323 21.4277 24.8421L21.4375 24.8372C21.4457 24.8325 21.4495 24.831 21.4521 24.8294L21.458 24.8245L21.4648 24.8216C21.5741 24.7628 21.6805 24.7041 21.7832 24.6429L21.7969 24.6351C22.4671 24.2872 23.4813 23.9271 24.5215 24.012C25.4975 24.0918 26.4728 24.5638 27.1895 25.7405C27.2315 25.4828 27.2521 25.1055 27.21 24.64C27.1063 23.4966 26.6459 21.8738 25.3711 20.303ZM25.3711 20.303C25.3698 20.3014 25.3685 20.2998 25.3672 20.2982L25.3633 20.2943C25.3661 20.2979 25.3691 20.3007 25.3711 20.303Z" fill="white" stroke="white" stroke-width="0.515005"/>
</svg>
