<svg width="32" height="32" viewBox="0 0 32 32" fill="none" xmlns="http://www.w3.org/2000/svg">
<path d="M9.59808 9.87559H7.83094L12.6487 23.4941L15.3458 15.7867L13.2547 9.87559H11.3902V8.57793H19.6467V9.87559H17.7133L22.5309 23.4941L24.2627 18.5453C26.5344 12.2048 22.4008 10.2297 22.4008 8.81468C22.4008 7.39965 23.5479 6.2526 24.9628 6.2526C25.0394 6.2526 25.1137 6.25674 25.1866 6.26353C22.789 4.00024 19.5562 2.6123 15.9989 2.6123C11.3507 2.6123 7.25638 4.9816 4.8562 8.57793H9.59794V9.87559H9.59808Z" fill="#00769D"/>
<path d="M2.61206 16.0001C2.61206 21.1255 5.49287 25.5775 9.72316 27.8271L3.68162 10.749C2.99341 12.3613 2.61206 14.1361 2.61206 16.0001Z" fill="#00769D"/>
<path d="M27.6503 9.40332C27.8418 10.5309 27.7838 11.7981 27.49 13.0703H27.5432L27.3408 13.6488C27.2208 14.0664 27.0698 14.4937 26.8982 14.9135L22.2917 27.8186C26.5132 25.5663 29.3866 21.1191 29.3866 16.0002C29.3866 13.6015 28.7552 11.3505 27.6503 9.40332Z" fill="#00769D"/>
<path d="M11.8706 28.7376C13.1712 29.1589 14.5585 29.3874 15.9995 29.3874C17.3739 29.3874 18.6998 29.18 19.948 28.7952L16.032 17.7256L11.8706 28.7376Z" fill="#00769D"/>
<path d="M27.3134 4.68627C24.2914 1.66428 20.2734 0 15.9997 0C11.7259 0 7.70801 1.66428 4.68602 4.68627C1.66404 7.70825 -0.000244141 11.7262 -0.000244141 16C-0.000244141 20.2738 1.66404 24.2917 4.68602 27.3137C7.70801 30.3356 11.726 31.9999 15.9998 31.9999C20.2735 31.9999 24.2914 30.3356 27.3135 27.3137C30.3355 24.2917 31.9998 20.2737 31.9998 16C31.9997 11.7262 30.3354 7.70825 27.3134 4.68627ZM15.9997 30.8713C7.79965 30.8713 1.12843 24.2 1.12843 16C1.12843 7.79996 7.79965 1.12868 15.9997 1.12868C24.1997 1.12868 30.8709 7.79996 30.8709 16C30.8709 24.2 24.1998 30.8713 15.9997 30.8713Z" fill="#00769D"/>
</svg>
