<svg width="192" height="26" viewBox="0 0 192 26" fill="none" xmlns="http://www.w3.org/2000/svg">
<path fill-rule="evenodd" clip-rule="evenodd" d="M10.3123 12.9862H12.7067C12.616 12.1426 12.3983 11.4136 12.0536 10.7992C11.709 10.1848 11.2691 9.67584 10.734 9.27235C10.1989 8.86887 9.58215 8.57084 8.88378 8.37827C8.18541 8.18569 7.43716 8.08941 6.63903 8.08941C5.53252 8.08941 4.56207 8.28656 3.72765 8.68088C2.89323 9.0752 2.19941 9.61623 1.64615 10.304C1.0929 10.9918 0.680229 11.7987 0.408137 12.7249C0.136044 13.6511 0 14.646 0 15.7098C0 16.7735 0.140579 17.7501 0.421741 18.6396C0.702904 19.5291 1.12011 20.2948 1.67336 20.9367C2.22662 21.5786 2.91591 22.0738 3.74125 22.4223C4.5666 22.7707 5.51438 22.945 6.58461 22.945C8.38042 22.945 9.79981 22.4681 10.8428 21.5144C11.8859 20.5607 12.5343 19.2036 12.7883 17.4429H10.4211C10.276 18.5433 9.88145 19.3961 9.2375 20.0014C8.59354 20.6066 7.70019 20.9092 6.5574 20.9092C5.83182 20.9092 5.20601 20.7625 4.67997 20.4691C4.15392 20.1756 3.72765 19.7859 3.40114 19.2999C3.07463 18.8138 2.83428 18.2591 2.6801 17.6355C2.52591 17.0119 2.44882 16.37 2.44882 15.7098C2.44882 14.9945 2.52138 14.3022 2.66649 13.6327C2.81161 12.9633 3.05195 12.3719 3.38754 11.8583C3.72312 11.3448 4.17206 10.9321 4.73439 10.6204C5.29671 10.3086 5.99507 10.1527 6.82949 10.1527C7.80902 10.1527 8.58901 10.4003 9.16947 10.8955C9.74994 11.3906 10.1309 12.0876 10.3123 12.9862ZM16.635 15.5447C16.635 14.6827 16.7483 13.917 16.9751 13.2476C17.2018 12.5782 17.5147 12.0142 17.9138 11.5557C18.3129 11.0972 18.78 10.7487 19.3151 10.5103C19.8502 10.2719 20.417 10.1527 21.0156 10.1527C21.6143 10.1527 22.1811 10.2719 22.7162 10.5103C23.2513 10.7487 23.7184 11.0972 24.1175 11.5557C24.5166 12.0142 24.8295 12.5782 25.0562 13.2476C25.2829 13.917 25.3963 14.6827 25.3963 15.5447C25.3963 16.4067 25.2829 17.1724 25.0562 17.8418C24.8295 18.5112 24.5166 19.0706 24.1175 19.5199C23.7184 19.9693 23.2513 20.3132 22.7162 20.5516C22.1811 20.79 21.6143 20.9092 21.0156 20.9092C20.417 20.9092 19.8502 20.79 19.3151 20.5516C18.78 20.3132 18.3129 19.9693 17.9138 19.5199C17.5147 19.0706 17.2018 18.5112 16.9751 17.8418C16.7483 17.1724 16.635 16.4067 16.635 15.5447ZM14.1862 15.5447C14.1862 16.5901 14.3313 17.5621 14.6215 18.4608C14.9117 19.3595 15.3471 20.1435 15.9275 20.8129C16.508 21.4824 17.2245 22.005 18.0771 22.381C18.9296 22.757 19.9091 22.945 21.0156 22.945C22.1403 22.945 23.1243 22.757 23.9678 22.381C24.8113 22.005 25.5233 21.4824 26.1038 20.8129C26.6842 20.1435 27.1196 19.3595 27.4098 18.4608C27.7 17.5621 27.8451 16.5901 27.8451 15.5447C27.8451 14.4993 27.7 13.5227 27.4098 12.6149C27.1196 11.707 26.6842 10.9184 26.1038 10.249C25.5233 9.57955 24.8113 9.05227 23.9678 8.66712C23.1243 8.28198 22.1403 8.08941 21.0156 8.08941C19.9091 8.08941 18.9296 8.28198 18.0771 8.66712C17.2245 9.05227 16.508 9.57955 15.9275 10.249C15.3471 10.9184 14.9117 11.707 14.6215 12.6149C14.3313 13.5227 14.1862 14.4993 14.1862 15.5447ZM30.1409 8.41953V22.6424H32.4537V13.784C32.4537 13.5089 32.5217 13.1651 32.6577 12.7524C32.7938 12.3398 33.0115 11.9409 33.3108 11.5557C33.6101 11.1706 34.0001 10.8404 34.4808 10.5653C34.9615 10.2902 35.5374 10.1527 36.2085 10.1527C36.7346 10.1527 37.1654 10.2306 37.501 10.3865C37.8366 10.5424 38.1041 10.7625 38.3036 11.0468C38.5032 11.331 38.6438 11.6657 38.7254 12.0509C38.807 12.436 38.8478 12.8579 38.8478 13.3164V22.6424H41.1606V13.784C41.1606 12.6836 41.4871 11.8033 42.1401 11.1431C42.7931 10.4828 43.691 10.1527 44.8338 10.1527C45.3962 10.1527 45.8542 10.2352 46.2079 10.4003C46.5616 10.5653 46.8382 10.79 47.0378 11.0743C47.2373 11.3586 47.3733 11.6933 47.4459 12.0784C47.5185 12.4636 47.5547 12.8762 47.5547 13.3164V22.6424H49.8675V12.216C49.8675 11.4823 49.7542 10.8542 49.5274 10.3315C49.3007 9.8088 48.9832 9.38239 48.5751 9.05227C48.1669 8.72214 47.6772 8.47914 47.1058 8.32325C46.5344 8.16735 45.895 8.08941 45.1875 8.08941C44.2624 8.08941 43.4144 8.30032 42.6435 8.72215C41.8726 9.14397 41.2513 9.74002 40.7797 10.5103C40.4894 9.62998 39.9906 9.00642 39.2832 8.63962C38.5757 8.27281 37.7867 8.08941 36.916 8.08941C34.9388 8.08941 33.4241 8.89637 32.3721 10.5103H32.3176V8.41953H30.1409ZM62.6932 14.1692H54.6121C54.6484 13.619 54.7663 13.1009 54.9658 12.6149C55.1654 12.1288 55.4375 11.7024 55.7821 11.3356C56.1268 10.9688 56.5394 10.68 57.0201 10.4691C57.5008 10.2581 58.0405 10.1527 58.6391 10.1527C59.2195 10.1527 59.7501 10.2581 60.2308 10.4691C60.7115 10.68 61.1287 10.9642 61.4824 11.3219C61.8361 11.6795 62.1173 12.1059 62.3259 12.6011C62.5345 13.0963 62.6569 13.619 62.6932 14.1692ZM64.9244 18.1307H62.6388C62.4393 19.066 62.0266 19.763 61.4008 20.2215C60.775 20.68 59.9723 20.9092 58.9928 20.9092C58.2309 20.9092 57.5688 20.7808 57.0065 20.5241C56.4442 20.2673 55.9816 19.9234 55.6189 19.4924C55.2561 19.0614 54.993 18.5663 54.8298 18.0069C54.6665 17.4475 54.594 16.856 54.6121 16.2325H65.142C65.1783 15.3705 65.1012 14.4626 64.9108 13.5089C64.7203 12.5552 64.3756 11.6749 63.8768 10.868C63.378 10.061 62.7159 9.39615 61.8905 8.87345C61.0652 8.35075 60.0267 8.08941 58.7751 8.08941C57.8137 8.08941 56.9294 8.27281 56.1222 8.63962C55.315 9.00642 54.6166 9.51994 54.0271 10.1802C53.4376 10.8404 52.9796 11.6199 52.653 12.5186C52.3265 13.4172 52.1633 14.4076 52.1633 15.4897C52.1996 16.5718 52.3583 17.5713 52.6394 18.4883C52.9206 19.4053 53.3423 20.1939 53.9047 20.8542C54.467 21.5144 55.1608 22.028 55.9862 22.3948C56.8115 22.7616 57.7865 22.945 58.9112 22.945C60.5074 22.945 61.8316 22.5415 62.8837 21.7345C63.9358 20.9276 64.616 19.7263 64.9244 18.1307ZM70.322 8.41953V4.15543H68.0092V8.41953H65.6148V10.4828H68.0092V19.5337C68.0092 20.194 68.0727 20.7258 68.1997 21.1293C68.3266 21.5328 68.5216 21.8446 68.7847 22.0647C69.0477 22.2847 69.3923 22.436 69.8186 22.5186C70.2449 22.6011 70.7573 22.6424 71.3559 22.6424H73.1245V20.5791H72.0634C71.7006 20.5791 71.4058 20.5653 71.1791 20.5378C70.9523 20.5103 70.7755 20.4507 70.6485 20.359C70.5215 20.2673 70.4353 20.1389 70.39 19.9739C70.3447 19.8088 70.322 19.5887 70.322 19.3136V10.4828H73.1245V8.41953H70.322ZM84.5625 13.4264H88.3446C88.2902 12.5094 88.0725 11.7162 87.6916 11.0468C87.3107 10.3773 86.8164 9.81798 86.2087 9.36864C85.601 8.9193 84.9117 8.5846 84.1408 8.36451C83.3699 8.14443 82.5672 8.03439 81.7328 8.03439C80.59 8.03439 79.5742 8.22696 78.6854 8.6121C77.7965 8.99725 77.0438 9.5337 76.427 10.2215C75.8103 10.9092 75.3432 11.7254 75.0258 12.6699C74.7083 13.6144 74.5496 14.6369 74.5496 15.7373C74.5496 16.801 74.7219 17.7776 75.0666 18.6671C75.4112 19.5566 75.8919 20.3223 76.5087 20.9642C77.1254 21.6061 77.8736 22.1059 78.7534 22.4636C79.6332 22.8212 80.5991 23 81.6512 23C83.5195 23 85.0523 22.5048 86.2495 21.5144C87.4467 20.5241 88.1723 19.0844 88.4262 17.1953H84.6986C84.5716 18.0757 84.2587 18.7772 83.7599 19.2999C83.261 19.8226 82.5491 20.0839 81.624 20.0839C81.0254 20.0839 80.5175 19.9464 80.1003 19.6713C79.6831 19.3961 79.352 19.0431 79.1071 18.6121C78.8622 18.1811 78.6854 17.6997 78.5765 17.1678C78.4677 16.6359 78.4133 16.1133 78.4133 15.5997C78.4133 15.0679 78.4677 14.5314 78.5765 13.9904C78.6854 13.4493 78.8713 12.9542 79.1343 12.5048C79.3974 12.0555 79.7375 11.6887 80.1547 11.4044C80.5719 11.1201 81.0888 10.978 81.7056 10.978C83.3563 10.978 84.3086 11.7941 84.5625 13.4264ZM90.1778 3V22.6424H94.0415V15.1871C94.0415 13.7382 94.2773 12.6974 94.749 12.0646C95.2206 11.4319 95.9824 11.1155 97.0345 11.1155C97.9596 11.1155 98.6036 11.4044 98.9664 11.9821C99.3292 12.5598 99.5106 13.4356 99.5106 14.6094V22.6424H103.374V13.8941C103.374 13.0138 103.297 12.2114 103.143 11.4869C102.989 10.7625 102.721 10.1481 102.34 9.64374C101.959 9.13938 101.438 8.74507 100.776 8.4608C100.114 8.17652 99.2657 8.03439 98.2317 8.03439C97.5062 8.03439 96.7624 8.22237 96.0006 8.59835C95.2387 8.97433 94.6129 9.57496 94.1232 10.4003H94.0415V3H90.1778ZM105.724 12.7937C105.779 11.8767 106.006 11.1155 106.405 10.5103C106.804 9.90509 107.312 9.41908 107.928 9.05227C108.545 8.68546 109.239 8.42412 110.01 8.26823C110.781 8.11233 111.556 8.03439 112.336 8.03439C113.044 8.03439 113.76 8.08482 114.486 8.1857C115.211 8.28657 115.873 8.48372 116.472 8.77717C117.071 9.07061 117.56 9.47868 117.941 10.0014C118.322 10.5241 118.513 11.2164 118.513 12.0784V19.4787C118.513 20.1206 118.549 20.735 118.622 21.3219C118.694 21.9088 118.821 22.3489 119.003 22.6424H115.084C115.012 22.4223 114.953 22.1976 114.908 21.9684C114.862 21.7391 114.83 21.5053 114.812 21.2669C114.196 21.9088 113.47 22.3581 112.636 22.6149C111.801 22.8716 110.949 23 110.078 23C109.407 23 108.781 22.9175 108.2 22.7524C107.62 22.5873 107.112 22.3306 106.677 21.9821C106.241 21.6337 105.901 21.1935 105.656 20.6616C105.412 20.1298 105.289 19.497 105.289 18.7634C105.289 17.9564 105.43 17.2916 105.711 16.7689C105.992 16.2462 106.355 15.829 106.799 15.5172C107.244 15.2054 107.752 14.9716 108.323 14.8157C108.894 14.6598 109.47 14.536 110.051 14.4443C110.631 14.3526 111.203 14.2792 111.765 14.2242C112.327 14.1692 112.826 14.0867 113.261 13.9766C113.697 13.8666 114.041 13.7061 114.295 13.4952C114.549 13.2843 114.667 12.9771 114.649 12.5736C114.649 12.1518 114.581 11.8171 114.445 11.5695C114.309 11.3219 114.128 11.1293 113.901 10.9917C113.674 10.8542 113.411 10.7625 113.112 10.7166C112.812 10.6708 112.49 10.6479 112.146 10.6479C111.384 10.6479 110.785 10.8129 110.35 11.1431C109.915 11.4732 109.661 12.0234 109.588 12.7937H105.724ZM114.649 15.6823C114.486 15.829 114.282 15.9436 114.037 16.0261C113.792 16.1087 113.529 16.1774 113.248 16.2325C112.967 16.2875 112.672 16.3333 112.363 16.37C112.055 16.4067 111.747 16.4525 111.438 16.5076C111.148 16.5626 110.862 16.6359 110.581 16.7276C110.3 16.8194 110.055 16.9431 109.847 17.099C109.638 17.2549 109.47 17.4521 109.343 17.6905C109.216 17.9289 109.153 18.2315 109.153 18.5983C109.153 18.9468 109.216 19.2403 109.343 19.4787C109.47 19.7171 109.643 19.9051 109.86 20.0426C110.078 20.1802 110.332 20.2765 110.622 20.3315C110.912 20.3865 111.212 20.414 111.52 20.414C112.282 20.414 112.871 20.2857 113.289 20.0289C113.706 19.7721 114.014 19.4649 114.214 19.1073C114.413 18.7497 114.536 18.3874 114.581 18.0206C114.626 17.6538 114.649 17.3604 114.649 17.1403V15.6823ZM125.978 8.41953V4.15543H122.115V8.41953H119.775V11.033H122.115V19.4237C122.115 20.1389 122.232 20.7166 122.468 21.1568C122.704 21.597 123.026 21.9363 123.434 22.1747C123.842 22.4131 124.314 22.5736 124.849 22.6561C125.384 22.7387 125.951 22.7799 126.55 22.7799C126.931 22.7799 127.321 22.7707 127.72 22.7524C128.119 22.7341 128.481 22.6974 128.808 22.6424V19.6162C128.627 19.6529 128.436 19.6804 128.237 19.6988C128.037 19.7171 127.828 19.7263 127.611 19.7263C126.958 19.7263 126.522 19.6162 126.305 19.3961C126.087 19.1761 125.978 18.7359 125.978 18.0757V11.033H128.808V8.41953H125.978Z" fill="#000000"/>
<path d="M145.168 22.812C144.032 22.812 143.048 22.548 142.216 22.02C141.4 21.492 140.76 20.772 140.296 19.86C139.848 18.932 139.624 17.86 139.624 16.644C139.624 15.412 139.848 14.324 140.296 13.38C140.76 12.436 141.416 11.692 142.264 11.148C143.128 10.604 144.152 10.332 145.336 10.332C146.184 10.332 146.952 10.508 147.64 10.86C148.344 11.196 148.88 11.676 149.248 12.3V4.692H151.96V22.5H149.464L149.296 20.556C148.928 21.276 148.376 21.836 147.64 22.236C146.904 22.62 146.08 22.812 145.168 22.812ZM145.768 20.316C146.488 20.316 147.104 20.156 147.616 19.836C148.128 19.516 148.52 19.076 148.792 18.516C149.08 17.94 149.224 17.284 149.224 16.548C149.224 15.796 149.08 15.14 148.792 14.58C148.52 14.02 148.128 13.58 147.616 13.26C147.104 12.94 146.488 12.78 145.768 12.78C145.064 12.78 144.456 12.94 143.944 13.26C143.432 13.58 143.04 14.028 142.768 14.604C142.512 15.164 142.384 15.812 142.384 16.548C142.384 17.284 142.512 17.94 142.768 18.516C143.04 19.076 143.432 19.516 143.944 19.836C144.456 20.156 145.064 20.316 145.768 20.316ZM154.343 16.572C154.343 15.34 154.615 14.26 155.159 13.332C155.703 12.404 156.447 11.676 157.391 11.148C158.351 10.62 159.431 10.356 160.631 10.356C161.847 10.356 162.919 10.62 163.847 11.148C164.791 11.676 165.535 12.404 166.079 13.332C166.623 14.26 166.895 15.34 166.895 16.572C166.895 17.804 166.623 18.884 166.079 19.812C165.535 20.74 164.791 21.468 163.847 21.996C162.919 22.524 161.847 22.788 160.631 22.788C159.431 22.788 158.351 22.524 157.391 21.996C156.447 21.468 155.703 20.74 155.159 19.812C154.615 18.884 154.343 17.804 154.343 16.572ZM157.103 16.572C157.103 17.308 157.247 17.964 157.535 18.54C157.839 19.116 158.255 19.564 158.783 19.884C159.311 20.188 159.927 20.34 160.631 20.34C161.335 20.34 161.951 20.188 162.479 19.884C163.007 19.564 163.415 19.116 163.703 18.54C164.007 17.964 164.159 17.308 164.159 16.572C164.159 15.804 164.007 15.14 163.703 14.58C163.415 14.02 163.007 13.58 162.479 13.26C161.951 12.94 161.335 12.78 160.631 12.78C159.927 12.78 159.311 12.94 158.783 13.26C158.255 13.58 157.839 14.02 157.535 14.58C157.247 15.14 157.103 15.804 157.103 16.572ZM168.522 16.572C168.522 15.356 168.77 14.284 169.266 13.356C169.778 12.412 170.474 11.676 171.354 11.148C172.234 10.604 173.258 10.332 174.426 10.332C175.994 10.332 177.282 10.748 178.29 11.58C179.314 12.396 179.906 13.492 180.066 14.868H177.33C177.17 14.18 176.834 13.66 176.322 13.308C175.826 12.94 175.226 12.756 174.522 12.756C173.882 12.756 173.314 12.916 172.818 13.236C172.322 13.54 171.938 13.98 171.666 14.556C171.394 15.116 171.258 15.788 171.258 16.572C171.258 17.34 171.386 18.012 171.642 18.588C171.898 19.148 172.258 19.588 172.722 19.908C173.202 20.212 173.77 20.364 174.426 20.364C175.178 20.364 175.81 20.18 176.322 19.812C176.85 19.444 177.194 18.932 177.354 18.276H180.09C179.962 19.172 179.642 19.964 179.13 20.652C178.618 21.324 177.954 21.852 177.138 22.236C176.338 22.62 175.434 22.812 174.426 22.812C173.242 22.812 172.202 22.556 171.306 22.044C170.426 21.516 169.738 20.788 169.242 19.86C168.762 18.916 168.522 17.82 168.522 16.572ZM181.432 18.972H184.024C184.04 19.5 184.24 19.924 184.624 20.244C185.008 20.548 185.544 20.7 186.232 20.7C186.952 20.7 187.504 20.564 187.888 20.292C188.272 20.02 188.464 19.66 188.464 19.212C188.464 18.876 188.36 18.596 188.152 18.372C187.96 18.148 187.584 17.964 187.024 17.82L184.912 17.34C183.856 17.1 183.064 16.716 182.536 16.188C182.024 15.644 181.768 14.908 181.768 13.98C181.768 13.228 181.968 12.58 182.368 12.036C182.768 11.492 183.312 11.076 184 10.788C184.704 10.484 185.504 10.332 186.4 10.332C187.264 10.332 188.024 10.492 188.68 10.812C189.352 11.116 189.872 11.556 190.24 12.132C190.624 12.692 190.816 13.356 190.816 14.124H188.224C188.208 13.58 188.032 13.156 187.696 12.852C187.36 12.548 186.888 12.396 186.28 12.396C185.672 12.396 185.2 12.532 184.864 12.804C184.528 13.06 184.36 13.42 184.36 13.884C184.36 14.588 184.888 15.06 185.944 15.3L188.056 15.804C189.048 16.028 189.792 16.396 190.288 16.908C190.8 17.404 191.056 18.1 191.056 18.996C191.056 19.764 190.848 20.436 190.432 21.012C190.016 21.588 189.44 22.036 188.704 22.356C187.968 22.66 187.12 22.812 186.16 22.812C184.72 22.812 183.568 22.46 182.704 21.756C181.856 21.036 181.432 20.108 181.432 18.972Z" fill="black"/>
</svg>
