<svg width="25" height="24" viewBox="0 0 25 24" fill="none" xmlns="http://www.w3.org/2000/svg">
<path d="M7.08687 5C7.14687 5.89 7.29687 6.76 7.53687 7.59L6.33687 8.79C5.92687 7.59 5.66688 6.32 5.57688 5H7.08687ZM16.9469 17.02C17.7969 17.26 18.6669 17.41 19.5469 17.47V18.96C18.2269 18.87 16.9569 18.61 15.7469 18.21L16.9469 17.02ZM8.04688 3H4.54688C3.99687 3 3.54688 3.45 3.54688 4C3.54688 13.39 11.1569 21 20.5469 21C21.0969 21 21.5469 20.55 21.5469 20V16.51C21.5469 15.96 21.0969 15.51 20.5469 15.51C19.3069 15.51 18.0969 15.31 16.9769 14.94C16.8769 14.9 16.7669 14.89 16.6669 14.89C16.4069 14.89 16.1569 14.99 15.9569 15.18L13.7569 17.38C10.9269 15.93 8.60687 13.62 7.16687 10.79L9.36687 8.59C9.64687 8.31 9.72687 7.92 9.61687 7.57C9.24687 6.45 9.04688 5.25 9.04688 4C9.04688 3.45 8.59688 3 8.04688 3Z" fill="#6852D6"/>
</svg>
