<svg xmlns="http://www.w3.org/2000/svg" height="48px" viewBox="0 -960 960 960" width="48px" fill="#6852D6"><path d="M872.13-442.91h-96.71q-15.37 0-26.26-11.17-10.9-11.16-10.9-26.11t10.97-25.86q10.98-10.91 26.12-10.91h96.78q15.74 0 26.63 10.88 10.89 10.88 10.89 25.83 0 14.95-10.89 26.14-10.89 11.2-26.63 11.2Zm-185.9 164.8q8.93-11.24 23.98-13.24t28.2 7.13l78.55 56.96q11.13 9.56 13.41 24.37 2.28 14.8-6.56 27.56-8.85 12.98-24.16 15.27-15.3 2.28-28.07-7.03l-77.93-58.34q-12.25-8.46-14.76-23.78-2.5-15.32 7.34-28.9Zm130.73-455.63-75.55 56.96q-13.15 9.13-28.17 7.13-15.02-2-24.29-14.24-9.56-12.23-7.56-27.67 2-15.44 15.44-25.01l75.47-57.08q12.05-8.57 27.35-6.29 15.31 2.29 23.87 14.7 9.13 12.98 6.85 27.96-2.28 14.98-13.41 23.54ZM180.48-344.26h-55.39q-32.51-2.26-53.13-25.23-20.61-22.97-20.61-54.15v-112.51q0-33.1 22.84-56.63 22.84-23.52 57.68-23.52h167.74l157.22-94.4q20.82-11.13 41.87.02 21.04 11.14 21.04 35.51v389.34q0 24.86-21.04 36.26-21.05 11.4-41.87-.73l-157.22-93.96h-35.48V-226q0 17.83-12.13 29.94-12.14 12.1-30.01 12.1-17.86 0-29.69-12.1-11.82-12.11-11.82-29.94v-118.26Zm257.87-10.22v-251.04l-118.92 70.61H132.74v109.82h186.69l118.92 70.61Zm127.82 23.35v-298.31q32.09 25.57 52.7 64.24 20.61 38.68 20.61 85.2t-20.5 85.14q-20.49 38.62-52.81 63.73ZM285.61-480Z"/></svg>