<svg width="25" height="24" viewBox="0 0 25 24" fill="none" xmlns="http://www.w3.org/2000/svg">
<path d="M14.1544 10.69L12.0944 9.75L14.1544 8.81L15.0944 6.75L16.0344 8.81L18.0944 9.75L16.0344 10.69L15.0944 12.75L14.1544 10.69ZM4.09436 14.75L5.03436 12.69L7.09436 11.75L5.03436 10.81L4.09436 8.75L3.15436 10.81L1.09436 11.75L3.15436 12.69L4.09436 14.75ZM8.59436 9.75L9.68436 7.34L12.0944 6.25L9.68436 5.16L8.59436 2.75L7.50436 5.16L5.09436 6.25L7.50436 7.34L8.59436 9.75ZM4.59436 21.25L10.5944 15.24L14.5944 19.24L23.0944 9.68L21.6844 8.27L14.5944 16.24L10.5944 12.24L3.09436 19.75L4.59436 21.25Z" fill="#6852D6"/>
</svg>
