<svg width="25" height="24" viewBox="0 0 25 24" fill="none" xmlns="http://www.w3.org/2000/svg">
<path d="M12.5472 21.75C13.6472 21.75 14.5472 20.85 14.5472 19.75H10.5472C10.5472 20.85 11.4472 21.75 12.5472 21.75ZM18.5472 15.75V10.75C18.5472 7.68 16.9172 5.11 14.0472 4.43V3.75C14.0472 2.92 13.3772 2.25 12.5472 2.25C11.7172 2.25 11.0472 2.92 11.0472 3.75V4.43C8.18718 5.11 6.54718 7.67 6.54718 10.75V15.75L4.54718 17.75V18.75H20.5472V17.75L18.5472 15.75ZM16.5472 16.75H8.54718V10.75C8.54718 8.27 10.0572 6.25 12.5472 6.25C15.0372 6.25 16.5472 8.27 16.5472 10.75V16.75Z" fill="#6852D6"/>
</svg>
